<svg width="32" height="32" viewBox="0 0 32 32" fill="none" xmlns="http://www.w3.org/2000/svg">
<path d="M15.5 8C13.0175 8.00141 10.593 8.71758 8.54193 10.0553C6.49086 11.393 4.90823 13.2903 4 15.5003C4.90711 17.711 6.48949 19.6089 8.54083 20.9467C10.5922 22.2845 13.0173 23 15.5 23C17.9827 23 20.4078 22.2845 22.4592 20.9467C24.5105 19.6089 26.0929 17.711 27 15.5003C26.0918 13.2903 24.5091 11.393 22.4581 10.0553C20.407 8.71758 17.9825 8.00141 15.5 8V8ZM15.5 20.5005C14.4661 20.5005 13.4555 20.2072 12.5959 19.6578C11.7363 19.1084 11.0663 18.3274 10.6706 17.4138C10.275 16.5001 10.1715 15.4947 10.3732 14.5248C10.5749 13.5549 11.0727 12.6639 11.8038 11.9646C12.5348 11.2653 13.4662 10.7891 14.4802 10.5962C15.4942 10.4032 16.5452 10.5023 17.5004 10.8807C18.4555 11.2592 19.2719 11.9001 19.8463 12.7223C20.4207 13.5446 20.7273 14.5113 20.7273 15.5003C20.7273 16.8264 20.1765 18.0982 19.1962 19.036C18.2159 19.9737 16.8864 20.5005 15.5 20.5005V20.5005ZM15.5 12.5002C14.8797 12.5002 14.2733 12.6761 13.7575 13.0058C13.2418 13.3354 12.8398 13.804 12.6024 14.3522C12.365 14.9004 12.3029 15.5036 12.4239 16.0856C12.5449 16.6675 12.8436 17.2021 13.2823 17.6217C13.7209 18.0413 14.2797 18.327 14.8881 18.4428C15.4965 18.5585 16.1271 18.4991 16.7002 18.272C17.2733 18.045 17.7632 17.6604 18.1078 17.1671C18.4524 16.6737 18.6364 16.0937 18.6364 15.5003C18.6364 14.7046 18.3059 13.9415 17.7177 13.3789C17.1296 12.8163 16.3318 12.5002 15.5 12.5002Z" fill="#C4C4C4"/>
</svg>
