<svg width="32" height="32" viewBox="0 0 32 32" fill="none" xmlns="http://www.w3.org/2000/svg">
<path d="M16 10.1271C19.6752 10.1271 22.9528 12.2034 24.5528 15.4883C23.9806 16.6775 23.1758 17.701 22.2158 18.5296L23.5831 19.904C24.9309 18.705 25.9976 17.2039 26.6667 15.4883C24.9891 11.2091 20.8485 8.17763 16 8.17763C14.7685 8.17763 13.5855 8.37258 12.4703 8.73324L14.0703 10.3416C14.7006 10.2149 15.3406 10.1271 16 10.1271ZM14.9625 11.2384L16.9697 13.2561C17.5225 13.4998 17.9685 13.9482 18.2109 14.5038L20.2182 16.5216C20.2958 16.1902 20.354 15.8392 20.354 15.4786C20.3637 13.0612 18.4049 11.1019 16 11.1019C15.6413 11.1019 15.3019 11.1506 14.9625 11.2384ZM6.31277 8.05091L8.91156 10.6633C7.33095 11.911 6.08004 13.5681 5.33337 15.4883C7.01095 19.7675 11.1516 22.799 16 22.799C17.474 22.799 18.8897 22.5164 20.1891 21.9997L23.5055 25.3334L24.8728 23.959L7.68004 6.66675L6.31277 8.05091ZM13.5855 15.3616L16.1164 17.9057C16.0776 17.9155 16.0388 17.9252 16 17.9252C14.6619 17.9252 13.5758 16.8335 13.5758 15.4883C13.5758 15.4396 13.5855 15.4104 13.5855 15.3616ZM10.2885 12.0474L11.9855 13.7533C11.7625 14.2894 11.6364 14.8742 11.6364 15.4883C11.6364 17.9057 13.5952 19.8748 16 19.8748C16.6109 19.8748 17.1928 19.748 17.7164 19.5238L18.6667 20.4791C17.8134 20.7131 16.9213 20.8495 16 20.8495C12.3249 20.8495 9.04731 18.7733 7.44731 15.4883C8.1261 14.0944 9.11519 12.9442 10.2885 12.0474Z" fill="#A8ADAF"/>
</svg>
